<svg id="Capa_1" enable-background="new 0 0 512 512" height="512" viewBox="0 0 512 512" width="512" xmlns="http://www.w3.org/2000/svg"><g><path d="m437.119 423.68-45.439 45.439-47.36-47.359c-16.961 10.879-35.84 18.879-56.32 23.039v67.201h-64v-67.201c-20.48-4.16-39.359-12.16-56.32-23.039l-47.359 47.359-45.44-45.439 47.359-47.359c-10.881-16.961-18.881-35.84-23.041-56.32l31.018-32 35.543 32c12.801 37.439 48.32 64 90.24 64s77.439-26.561 90.24-64l34.021-32 32.54 32c-4.16 20.48-12.16 39.359-23.041 56.32z" fill="#4de600"/><path d="m352 57.92-32-14.721c11.199 3.52 22.08 8.641 32 14.721z" fill="#c8fa64"/><path d="m480 256v32l-133.76 32h-180.48l-133.76-32v-32h32v-32c0-71.041 38.721-133.121 96-166.08l32-14.721c10.24-3.84 21.119-6.719 32-8.32h64c10.881 1.602 21.76 4.48 32 8.32l32 14.721c57.279 32.959 96 95.039 96 166.08v32z" fill="#c8fa64"/><g fill="#4de600"><path d="m224 0h64v34.879h-64z"/><path d="m192 43.199v116.801h-32v-102.08c9.92-6.08 20.801-11.201 32-14.721z"/><path d="m352 57.92v102.08h-32v-116.801z"/></g><path d="m288 34.879v125.121h-64v-125.121c10.561-1.92 21.119-2.879 32-2.879s21.439.959 32 2.879z" fill="#0c0"/><path d="m165.76 320h-133.76v-32h128c0 11.199 1.92 22.08 5.76 32z" fill="#0c0"/><path d="m480 288v32h-133.76c3.84-9.92 5.76-20.801 5.76-32z" fill="#0c0"/></g></svg>